<?xml version="1.0" encoding="utf-8"?>
<!-- Generator: Adobe Illustrator 19.1.0, SVG Export Plug-In . SVG Version: 6.00 Build 0)  -->
<svg version="1.1" id="Lager_1" xmlns="http://www.w3.org/2000/svg" xmlns:xlink="http://www.w3.org/1999/xlink" x="0px" y="0px"
	 viewBox="0 0 480 480" style="enable-background:new 0 0 480 480;" xml:space="preserve">
<style type="text/css">
	.st0{stroke:#000000;stroke-miterlimit:10;}
	.st1{display:none;fill:none;stroke:#000000;stroke-miterlimit:10;}
</style>
<g>
	<path class="st0" d="M306.6,0L380,0c8.4,0,15.2,6.8,15.2,15.2v449.7c0,8.4-6.8,15.2-15.2,15.2h-73.5c-8.4,0-15.2-6.8-15.2-15.2
		V15.2C291.4,6.8,298.2,0,306.6,0z"/>
</g>
<g>
	<path class="st0" d="M99,0l73.5,0c8.4,0,15.2,6.8,15.2,15.2v449.7c0,8.4-6.8,15.2-15.2,15.2H99c-8.4,0-15.2-6.8-15.2-15.2V15.2
		C83.8,6.8,90.6,0,99,0z"/>
</g>
<line class="st1" x1="239.5" y1="0" x2="239.5" y2="480"/>
</svg>
